<?xml version="1.0" standalone="no"?>
<!DOCTYPE svg PUBLIC "-//W3C//DTD SVG 20010904//EN"
 "http://www.w3.org/TR/2001/REC-SVG-20010904/DTD/svg10.dtd">
<svg version="1.0" xmlns="http://www.w3.org/2000/svg"
 width="100.000000pt" height="100.000000pt" viewBox="0 0 100.000000 100.000000"
 preserveAspectRatio="xMidYMid meet">
<metadata>
Created by potrace 1.14, written by Peter Selinger 2001-2017
</metadata>
<g transform="translate(0.000000,100.000000) scale(0.100000,-0.100000)"
fill="#000000" stroke="none">
<path d="M555 805 c-116 -30 -213 -54 -217 -55 -5 0 -8 -92 -8 -205 0 -157 -3
-205 -12 -206 -31 -2 -61 -10 -102 -30 -92 -43 -130 -106 -85 -142 56 -46 236
13 278 90 7 14 11 84 11 195 l0 174 118 28 c64 16 124 33 132 38 12 7 10 8 -5
4 -186 -47 -225 -56 -235 -56 -20 0 -6 43 15 46 19 3 200 49 238 60 16 5 17
-6 17 -144 l0 -150 -37 -7 c-119 -22 -220 -121 -168 -165 58 -48 249 11 284
88 17 35 15 492 -1 491 -7 0 -107 -25 -223 -54z"/>
</g>
</svg>
